<?xml version="1.0" standalone="no"?>
<!DOCTYPE svg PUBLIC "-//W3C//DTD SVG 20010904//EN"
 "http://www.w3.org/TR/2001/REC-SVG-20010904/DTD/svg10.dtd">
<svg version="1.0" xmlns="http://www.w3.org/2000/svg"
 width="4000.000000pt" height="4000.000000pt" viewBox="0 0 4000.000000 4000.000000"
 preserveAspectRatio="xMidYMid meet">

<g transform="translate(0.000000,4000.000000) scale(0.100000,-0.100000)"
fill="#000000" stroke="none">
<path d="M19998 39400 c-4 -14 -12 -128 -18 -255 -20 -398 -86 -1461 -110
-1755 -6 -69 -17 -213 -25 -320 -16 -205 -23 -276 -56 -610 -11 -113 -24 -248
-29 -301 -5 -52 -12 -113 -15 -135 -3 -21 -14 -115 -26 -209 -58 -489 -148
-1019 -225 -1335 -213 -863 -474 -1389 -888 -1787 -533 -513 -1292 -791 -2861
-1048 -187 -30 -356 -58 -375 -62 -27 -5 4 -12 140 -34 1301 -211 1932 -377
2465 -647 757 -385 1172 -955 1460 -2005 132 -479 249 -1165 325 -1902 50
-478 77 -784 115 -1295 34 -465 97 -1470 111 -1798 4 -84 10 -154 13 -157 4
-2 15 150 24 338 10 188 22 405 27 482 5 77 17 253 25 390 23 383 34 536 75
1090 6 77 15 183 20 235 5 52 12 129 15 170 57 683 160 1458 260 1955 82 405
201 813 326 1113 343 825 862 1293 1778 1603 475 161 905 256 1966 433 90 15
131 25 115 29 -14 3 -180 31 -370 62 -1627 265 -2390 554 -2930 1111 -189 196
-326 393 -464 672 -91 185 -119 253 -197 482 -287 837 -457 2065 -594 4290 -8
135 -20 315 -25 400 -5 85 -16 286 -25 445 -21 406 -19 384 -27 355z"/>
<path d="M13813 27928 c-6 -7 -38 -107 -71 -223 -74 -255 -194 -598 -276 -790
-168 -388 -386 -800 -575 -1085 -31 -46 -60 -92 -66 -101 -44 -76 -279 -398
-357 -489 -21 -25 -70 -83 -109 -130 -137 -164 -196 -227 -404 -435 -207 -207
-266 -262 -435 -404 -47 -39 -105 -88 -130 -109 -60 -51 -327 -252 -354 -266
-12 -6 -46 -29 -76 -52 -30 -22 -59 -43 -65 -45 -5 -2 -50 -31 -100 -63 -49
-32 -108 -70 -130 -84 -22 -14 -52 -33 -67 -44 -15 -10 -29 -18 -32 -18 -2 0
-44 -23 -93 -51 -101 -59 -508 -267 -568 -291 -22 -9 -65 -28 -95 -42 -158
-74 -544 -216 -800 -293 -21 -6 4 -24 110 -78 210 -108 476 -285 676 -452 670
-560 1099 -1330 1274 -2288 57 -307 53 -197 57 -1657 4 -1354 4 -1358 24
-1358 l20 0 -4 -2357 c-3 -1713 -7 -2398 -16 -2503 -28 -340 -52 -576 -76
-745 -162 -1137 -538 -2021 -1127 -2655 -253 -271 -609 -537 -930 -696 -43
-21 -78 -41 -78 -45 0 -3 46 -10 103 -13 2125 -145 4150 -1041 6022 -2665 509
-441 1086 -1017 1570 -1566 306 -347 690 -815 930 -1133 21 -28 40 -52 41 -52
1 0 23 35 50 78 502 813 1194 1612 1974 2283 504 432 1044 817 1653 1179 97
58 177 107 177 110 0 3 -37 21 -83 40 -142 60 -358 174 -467 246 -58 39 -195
131 -305 205 -110 74 -263 175 -340 225 -77 50 -205 134 -285 186 -162 106
-848 553 -1520 991 -245 160 -517 337 -605 395 -162 105 -210 143 -368 286
-283 258 -580 664 -750 1025 -231 493 -353 999 -397 1641 -6 92 -10 1625 -10
4168 0 4006 0 4023 21 4170 193 1387 873 2379 2050 2992 l134 69 -55 24 c-30
14 -104 48 -165 77 -60 28 -177 79 -260 112 -82 33 -168 68 -190 78 -22 10
-83 37 -135 61 -284 127 -679 347 -985 549 -138 91 -363 257 -521 384 -324
260 -748 683 -1022 1021 -80 98 -302 393 -302 402 0 4 -10 19 -21 33 -60 75
-234 349 -343 542 -65 116 -286 551 -286 564 0 4 -22 57 -50 118 -111 250
-196 490 -299 844 -48 164 -68 205 -88 180z"/>
<path d="M26159 27924 c-8 -9 -35 -89 -61 -178 -102 -352 -187 -592 -298 -842
-28 -61 -50 -114 -50 -118 0 -13 -221 -448 -286 -564 -109 -193 -283 -467
-343 -542 -11 -14 -21 -29 -21 -33 0 -9 -222 -304 -302 -402 -274 -338 -698
-761 -1022 -1021 -158 -127 -383 -293 -521 -384 -306 -202 -701 -422 -985
-549 -52 -24 -113 -51 -135 -61 -22 -10 -107 -45 -190 -78 -82 -33 -199 -84
-260 -112 -60 -29 -135 -63 -165 -77 l-55 -24 134 -69 c1177 -613 1857 -1605
2050 -2992 21 -147 21 -164 21 -4170 0 -2543 -4 -4076 -10 -4168 -53 -775
-234 -1403 -558 -1937 -44 -73 -78 -133 -75 -133 4 0 143 50 309 110 167 61
309 110 317 110 7 0 53 14 103 30 141 49 490 139 734 190 894 188 1821 229
2760 124 149 -17 536 -76 645 -99 39 -8 104 -22 145 -30 196 -40 480 -113 680
-176 69 -21 154 -47 190 -58 130 -38 524 -184 573 -212 23 -13 117 -50 117
-46 0 2 -30 57 -67 123 -293 524 -501 1186 -608 1939 -24 169 -48 405 -76 745
-9 105 -13 790 -16 2503 l-4 2357 20 0 c20 0 20 4 24 1358 4 1460 0 1350 57
1657 128 703 393 1304 793 1800 294 366 735 724 1157 940 106 54 131 72 110
78 -256 77 -642 219 -800 293 -30 14 -73 33 -95 42 -60 24 -467 232 -568 291
-49 28 -91 51 -93 51 -3 0 -17 8 -32 18 -15 11 -45 30 -67 44 -22 14 -80 52
-130 84 -49 32 -94 61 -100 63 -5 2 -35 23 -65 45 -30 23 -64 46 -76 52 -27
14 -294 215 -354 266 -25 21 -83 70 -130 109 -169 142 -228 197 -435 404 -208
208 -267 271 -404 435 -39 47 -88 105 -109 130 -78 91 -313 413 -357 489 -5 9
-35 55 -66 101 -189 285 -407 697 -575 1085 -83 193 -202 536 -275 790 -33
116 -66 216 -73 223 -10 11 -15 10 -27 -4z"/>
<path d="M19997 19445 c-4 -60 -16 -256 -27 -435 -83 -1341 -189 -1975 -401
-2390 -249 -488 -632 -685 -1664 -855 -88 -14 -161 -28 -162 -29 -2 -2 72 -15
164 -30 1158 -186 1539 -428 1774 -1124 145 -429 224 -1036 299 -2292 11 -190
22 -352 23 -360 2 -8 7 46 11 120 13 249 46 753 61 950 107 1394 288 1964 727
2290 251 188 665 317 1355 426 62 10 112 19 110 20 -1 1 -74 14 -162 28 -796
129 -1170 268 -1436 535 -393 393 -541 1069 -644 2941 -9 157 -17 292 -18 300
-2 8 -6 -34 -10 -95z"/>
</g>
</svg>
